<svg xmlns="http://www.w3.org/2000/svg" viewBox="0 0 927.78 891.07"><defs><style>.cls-1{fill:none;stroke:#fff;stroke-miterlimit:10;}</style></defs><title>Asset 10</title><g id="Layer_2" data-name="Layer 2"><g id="Layer_1-2" data-name="Layer 1"><path class="cls-1" d="M839.36,124.3a275.44,275.44,0,0,0-55-50.73c-24.5-17-53.92-35.93-64-40C654.62,6.84,582.78-13.78,518.58,13c-38.32,16-68.74,47.75-88.46,84.3s-29.47,77.74-34.39,119c-3.09,25.94-4.42,52.42-12.89,77.13-20.55,60-79.09,98.64-137.95,122.25S122.63,452.82,68.25,485.45q-1.7,1-3.39,2.07C-10.8,534.83-21.5,641,42.07,703.6l37.09,41a354.9,354.9,0,0,0,33.54,32.48c19.83,16.83,45.53,37.29,57.59,46,40.54,29.29,84.09,54,133.57,63.07,38.86,7.16,77.65,6.61,113.77-9.1,38.09-16.56,68-48.75,87.22-85.59S533.17,713.3,537.48,672c2.71-26,3.66-52.47,11.76-77.31,19.67-60.29,77.63-99.79,136.14-124.26S807.09,431.52,861,398.09q1.68-1,3.36-2.12c74.9-48.36,84.46-154.37,20.55-216.54Z"/></g></g></svg>