<svg xmlns="http://www.w3.org/2000/svg" viewBox="0 0 624.5 701.25"><title>Asset 2</title><g id="Layer_2" data-name="Layer 2"><g id="Layer_1-2" data-name="Layer 1"><path d="M544.61.9c-68.67,9.49-128.35,51.16-172.26,103.25-23.3,27.64-42.79,58.29-59.94,90.07-17,31.53-30.94,64.58-47.51,96.33-15.86,30.39-35,59-61.57,81-23.35,19.32-50.2,33.78-76.52,48.54-25.12,14.09-50.45,28.56-71.94,48a157,157,0,0,0-47.39,78.4c-4.33,16.91-6.35,34.36-7,51.78C.11,606.91-.4,616,.52,624.66c.9,8.47,4.23,16.58,8.35,24,16,28.77,48.47,40.1,79.45,44.32,17.22,2.34,34.59,2.92,51.92,3.93,18.61,1.09,37.19,2.52,55.81,3.36,38.61,1.73,77.47,1.69,115.83-3.53A350.89,350.89,0,0,0,419.6,664.14c35.75-17.52,69.67-38.86,104-58.95l27.22-15.93c5.89-3.45,11.88-6.73,17.13-11.13,12-10.08,22.25-20.37,29.4-34.55,7.56-15,11.25-32.33,14.75-48.64A493.32,493.32,0,0,0,620.71,437c7.6-82.07,2.23-165.27-2.86-247.33-1.29-20.79-2.63-41.58-3.88-62.38-1.11-18.54-.67-36.83-.47-55.39A214.59,214.59,0,0,0,612.33,44c-.79-6.57-1.69-13.43-4.77-19.37-5.41-10.44-16.12-17-27-20.66A76.59,76.59,0,0,0,544.43.92c-1.9.3-1.09,3.19.8,2.89a72.35,72.35,0,0,1,39.05,4.77c13.12,5.6,21.58,15,24.11,29.11,3.15,17.6,2.09,35.69,1.68,53.47-.43,18.7,1,37.28,2.11,55.93,5,80.12,10.74,160.37,8.37,240.69-1.14,38.78-4.36,77.68-13.41,115.5-3.82,16-7.91,32.3-16.64,46.39a100.44,100.44,0,0,1-30.58,30.69c-16.4,10.56-33.75,19.86-50.58,29.72s-33.71,19.84-50.66,29.59C426,658.44,392.51,675.39,355.92,685c-72.87,19.17-147.9,12.51-222.13,8.5-32.49-1.75-67.62-2.5-96.3-19.84-15.45-9.34-27-23.41-32.24-40.87-2.6-8.7-2.16-17.93-2-26.92.14-8.55.58-17.1,1.42-25.6,3.37-34,13.9-67.21,36.23-93.61,18.36-21.71,42.22-37.78,66.54-52.1,24.63-14.5,50.19-27.45,74-43.27,25-16.57,46.44-36.54,63.51-61.27,19.38-28.08,33.2-59.45,47.79-90.15,15.19-32,31.69-63.35,51.3-92.84C382,89.89,433.46,39.17,499,15.32A226.29,226.29,0,0,1,545.41,3.8c1.9-.26,1.09-3.15-.8-2.89Z"/></g></g></svg>