<svg xmlns="http://www.w3.org/2000/svg" viewBox="0 0 621.91 699.26"><defs><style>.cls-1{fill:none;stroke:#fff;stroke-miterlimit:10;}</style></defs><title>Asset 4</title><g id="Layer_2" data-name="Layer 2"><g id="Layer_1-2" data-name="Layer 1"><path class="cls-1" d="M543.82,1.36c-58.72,7.88-112.2,40.41-153.52,82.87s-71.5,94.48-97.16,147.88c-21.47,44.67-40.88,91.89-76,126.86-57,56.76-149.24,74.94-191.42,143.44C4.36,537.09-.3,579.52.61,620.23c.24,10.88,5.27,21.92,11,31.14,5,8,10,13,18,18.7,32.77,23.46,77.23,22,117.44,24.82C227,700.47,309.64,704,384.73,676.14c32.26-12,62.14-29.46,91.84-46.84l78.26-45.81c10.18-6,9.65-6.7,18.81-14.12,12.53-10.15,22-27,25.58-37.82,14.54-44,19.7-90.53,21.38-136.83,3.4-93.8-4.68-187.58-10.07-281.29-1.45-25.27,3.12-56.06-2.88-82.06-5.62-24.37-40-34-64-30"/></g></g></svg>