<svg xmlns="http://www.w3.org/2000/svg" viewBox="0 0 416.92 560.3"><defs><style>.cls-1{fill:none;stroke:#fff;stroke-miterlimit:10;}</style></defs><title>Asset 3</title><g id="Layer_2" data-name="Layer 2"><g id="Layer_1-2" data-name="Layer 1"><path class="cls-1" d="M123.62,6.63c29,5,65.68,8.38,91.35,21.22,27.13,13.57,47.86,34.43,69.26,55.42,20.21,19.82,43,39.73,71.56,45.71,21,4.39,49.22-1.72,58.36-23.6,8.7-20.84-9.19-38.63-28.71-42.19C361.38,58.79,342,75.32,331.36,95.54c-13.2,25.16-16.26,55.41-16.61,83.38-.39,31.47,3.62,62.77,7.28,94s7.12,62.83,5.59,94.39c-1.39,28.81-7.15,57.58-18.24,84.26-10.62,25.56-26.24,49.09-46.86,67.67-19.63,17.69-43.48,31-69.28,37.08-27.16,6.39-55.29,3.73-81.55-5.22-27.29-9.3-52.23-24.56-75.19-41.79-11.08-8.32-20.9-17.69-26.88-30.64C3.21,464.76,1.55,448.87,1.22,434Q.09,383.75.73,333.51T3.79,233.09q2.42-50.35,6.62-100.59c2.54-30.33,3.92-62.61,17.66-90.38C39.36,19.29,54.21,2.68,80.62.63c12.9-1,31.08,4.26,43,6"/></g></g></svg>