<svg xmlns="http://www.w3.org/2000/svg" viewBox="0 0 418.54 562.18"><title>Asset 1</title><g id="Layer_2" data-name="Layer 2"><g id="Layer_1-2" data-name="Layer 1"><path d="M124.22,9.06c26.62,4.54,54.09,6.94,79.63,16.23,27.51,10,49.83,30.29,70.47,50.38,19.18,18.66,38.32,38.52,63.19,49.55,19.5,8.65,43.06,11.24,62.26.22,18.17-10.43,26-33.88,10.5-50.24-15.78-16.69-41.77-16.8-59.49-3.37-20.45,15.5-29.29,42.27-33.28,66.63-4.95,30.16-3.71,61.16-.86,91.46,6.09,64.79,19.26,130.07,1.8,194.3-15.49,57-54.18,108.51-111.6,127.88-61.18,20.63-124.3-7.69-172.06-45.83-11.25-9-20.55-19.83-25.35-33.59C4.31,458,3.86,442.45,3.55,427.07q-1-49.73-.22-99.48c1-66.26,4.6-132.37,9.93-198.42,2.41-29.88,4.35-60.76,18.4-87.88C42.82,19.76,60.71,2.36,86.51,3c12.77.32,25.15,4.12,37.72,6,1.89.29,2.7-2.6.8-2.89C112.9,4.31,101,.83,88.71.1A56.88,56.88,0,0,0,57.1,7.43C37.22,19,25.65,42.6,19.55,63.86,11.46,92,10.73,122.18,8.48,151.22Q4.64,201,2.53,250.8.44,300.5.08,350.25q-.18,25.12.08,50.23C.32,416.28,0,432.28,1.42,448c1.23,13.46,4.2,27.11,11.35,38.76,6.74,11,16.55,19.3,26.8,26.87,23.49,17.34,49.1,32.55,77.12,41.27,28.21,8.78,58.53,10,86.93,1.36,26.3-8,50.27-23.38,69.33-43.12C314,470.6,330.49,410.45,330.49,352.48c0-65.18-17.45-129.39-12.29-194.73,2.16-27.29,8.37-58.51,28.61-78.52,9.2-9.09,21.31-15,34.45-14.19,12.55.77,25.64,7.56,31.69,18.91,6.37,12,1.4,26-8.41,34.49-8.68,7.48-20.42,10.82-31.7,11.3-27.37,1.16-52.08-15.32-71.76-32.68-21-18.52-39.41-39.76-62.29-56.12a143.26,143.26,0,0,0-34.86-18.8c-13-4.64-26.58-7.43-40.14-9.78-12.89-2.23-25.86-4-38.76-6.19-1.89-.32-2.7,2.57-.8,2.89Z"/></g></g></svg>