<svg xmlns="http://www.w3.org/2000/svg" viewBox="0 0 2102 1186"><defs><style>.cls-1{fill:none;stroke:#000;stroke-miterlimit:10;}</style></defs><title>Asset 8</title><g id="Layer_2" data-name="Layer 2"><g id="Layer_1-2" data-name="Layer 1"><path class="cls-1" d="M577,1183.64c57.57-3.61,130.6-1.22,222.18-24.73,35.88-9.21,68.27-22.79,99-37.61C981.77,1081,1084.43,1005,1193,946c112.64-61.26,244.76-108.35,386.12-138.17,83.83-17.68,177.28-29,259.35-8.37,27,6.79,55.36,21.62,49.61,39.48-6.33,19.66-52.28,24.74-77.9,12.72s-33.55-33.45-38.92-53.22c-33.2-122.22-27.1-230.27-21.68-283.35l1.46-14.5a253.29,253.29,0,0,1,17.58-70.67l.43-1.05c12.19-29.55,28.91-58.53,52.87-85.17A291.66,291.66,0,0,1,1908.26,278c33.64-16.86,77.69-30.6,121.87-24.8,37.79,5,73.54,26.66,71.26,52.14-2.24,25-39.24,40.44-73.43,48.21-45.62,10.37-95.49,13.22-143.73,13.27-51.28.05-102.4-4.21-152.3-11.47a1457.91,1457.91,0,0,1-144.47-29c-47.32-11.85-93.47-25.48-138.8-40-45.83-14.73-91-30.33-135.58-46.43q-67.21-24.26-132.8-50.24c-44.07-17.47-87.35-35.69-130.64-53.9-43-18.08-86-36.12-130.28-53-42.92-16.37-87-31.66-132.82-44.6A1053.38,1053.38,0,0,0,644.66,8c-49-6.77-99.9-9.74-149.87-5.67C449.42,6,404.35,15.7,368.29,33.75c-34.75,17.39-60.12,41.91-70.4,69.08-3.21,8.5-6,18.72-4.95,27.44,1.63,14,5.65,26.65,11.41,40.19q.86,2,1.79,4.05c16.34,35.77,49,67.77,92.91,92.82L425,282.1c9.95,5.5,19.61,11.18,29.21,16.92,37,22.11,74.23,45.6,121.27,59.25,41.86,12.14,98,15.68,133.81-6.11,16.21-9.85,25.26-24.84,17.17-38.62-7.78-13.26-28.69-22-49.95-25.16-48.7-7.2-91.11,14.73-112.3,40.33-22.7,27.41-28.78,59.87-29.82,90.32-1.22,35.67,5.48,71.27,12.12,106.63,6.68,35.56,13.48,71.2,13.39,107.06-.09,34.38-6.66,68.81-23.65,101.59-15.63,30.16-39.8,58.56-72.8,82.69A329,329,0,0,1,408,849.5c-27.15,12.62-58.1,21.68-90.81,27l-34.48,5.63L143.07,903.1c-38.84,5.83-87.57,16.51-123.11-.6s-15.59-46.19,6.68-64.4C38,828.83,53.45,821.54,73,823.25c18.73,1.63,34.17,9.86,43.52,19.81,10.48,11.16,14.69,24.17,18.78,36.7,4.68,14.33,8.48,28.76,12.05,43.22,7.1,28.76,13.24,57.64,23.4,86.06,8.66,24.22,20.46,48.06,37.72,70.45A229.67,229.67,0,0,0,274,1137.18c28.36,16.78,62.76,28.74,99.75,36.28,38,7.74,78,11,117.8,11.84q14.78.3,29.56.16Z"/></g></g></svg>