<svg xmlns="http://www.w3.org/2000/svg" viewBox="0 0 1233.65 1232.62"><defs><style>.cls-1{fill:none;stroke:#fff;stroke-miterlimit:10;}</style></defs><title>Asset 5</title><g id="Layer_2" data-name="Layer 2"><g id="Layer_1-2" data-name="Layer 1"><path class="cls-1" d="M76.65,375.36c18,2,47.64,6.64,65.48,12.06,16.51,5,31.78,13.32,45.63,23.54,27.36,20.2,48.13,48,76.12,67.44,22.38,15.52,54.43,27.66,80.34,13.37,12.52-6.91,22.87-20.22,19.48-35.24-3.26-14.43-17.8-23.84-31.77-25.55-27.25-3.33-47.17,18.17-56.82,41.2-12.3,29.36-13.56,62.74-12.13,94.09,1.73,38.13,8.13,75.86,11.22,113.87,3,36.74,2.41,73.88-7,109.74-8.43,32.2-23.85,62.64-46.64,87.07-22.46,24.08-52.93,43.41-84.14,47.55-8.24,1.09-15.79,1.86-24.79,2.86h0c-52,3-70,19-84,34-13.1,14-18.16,33.53-21.74,52.39a309.22,309.22,0,0,0-4.7,78.47c1.26,18.6,4.34,37.48,13.06,54,10.77,20.37,29.19,35.42,47.12,49.89,14.39,11.61,29.17,23.44,46.66,29.41,16.21,5.53,33.7,5.67,50.84,5.74l172.57.76c55.69.25,111.43.49,167-3q44.89-2.84,89.5-8.94c16.85-2.31,34.25-5.18,48.44-14.55s24.32-27,19.73-43.42c-2.28-8.14-7.8-14.95-13.47-21.23-11.74-13-13-32.47-38.7-35.45l-.31,0c-53-6-45-51-44.66-58.06,1.24-26.16,6.12-52.56,17.4-76.37,10.85-22.89,28-41.85,47.74-57.42,21.58-17,45.85-30.1,69.74-43.48s47.94-26.94,68.82-44.72c19.28-16.42,35.14-36.48,48.14-58.14,14.44-24.06,25.88-49.73,37.92-75s25-50.41,39.71-74.41a465,465,0,0,1,48-65.73,328.44,328.44,0,0,1,59-52.78c10.58-7.3,21.71-13.53,32.91-19.81,10.84-6.09,21.32-12,32.32-17C1195.14,402,1203.81,384.42,1224,318.56c6.82-22.25,8.93-45.3,9.15-68.24.46-49.21-11.34-107.73-63.49-131C1065,80.77,747.14,15.86,633.15,5.86c-31.94-2.8-63-4-94-5-62-1-124,0-187,4l-33,3c-38,5-74,10-110.5,17.5-8.94,1.59-33,8-40.82,11.06-48.91,19.16-88.93,62.21-115.18,109s-38,119.91-33,172.91c4,28,26.5,56.5,57,57"/></g></g></svg>