<svg xmlns="http://www.w3.org/2000/svg" viewBox="0 0 743.29 835.3"><defs><style>.cls-1{fill:none;stroke:#fff;stroke-miterlimit:10;}</style></defs><title>Asset 9</title><g id="Layer_2" data-name="Layer 2"><g id="Layer_1-2" data-name="Layer 1"><path class="cls-1" d="M285.69,830.25a199.65,199.65,0,0,1-104.95-5.44c-56-18.7-104.06-59.6-132.34-112.6C7.3,635.17,1.19,544.67.55,457.36,0,382.25,3.32,305,33.19,236.1c14.44-33.32,34.75-63.8,57.16-92.37C143.29,76.22,213.59,16,298.37,2.78,326.07-1.53,355.5-.4,380.64,12s38.82,37.71,45.58,65.71L438,128.14A308.72,308.72,0,0,0,535.54,275c15.49,12.86,32.44,24.3,51.33,31.25,45.13,16.62,99.52,4.18,132.94-30.39,18.51-19.15,30.6-49.22,17.42-72.37-16.79-29.48-64.56-25.74-87.14-.41s-25.85,62.22-24.63,96.13c2.14,59,14.47,117.74,11,176.7-4.87,81.69-40.94,160.38-96.31,220.64-54.74,59.58-127.6,101.4-205.54,123.12-1.79.5-3.6.93-5.41,1.32Z"/></g></g></svg>