<svg xmlns="http://www.w3.org/2000/svg" viewBox="0 0 174.38 174.38"><defs><style>.cls-1{fill:#15f0d8;}.cls-2{fill:none;stroke:#15f0d8;stroke-miterlimit:10;stroke-width:4px;stroke-dasharray:4.02 3.02;}</style></defs><title>Asset 2</title><g id="Layer_2" data-name="Layer 2"><g id="Layer_1-2" data-name="Layer 1"><g id="Layer_2-2" data-name="Layer 2"><g id="Layer_1-2-2" data-name="Layer 1-2"><path class="cls-1" d="M71.72,87.87H48.52c-4.2,0-7.58-2.78-7.58-6.21V38.17c0-3.43,3.37-6.21,7.58-6.21H93c4.18,0,7.55,2.78,7.55,6.21V53.31c0,1.72-1.72,3.11-3.79,3.11H79.29c-2.09,0-3.79,1.39-3.79,3.11V84.76C75.51,86.48,73.81,87.87,71.72,87.87Z"/><path class="cls-1" d="M107.3,100.73V117c0,3.44-3.37,6.21-7.52,6.21H83.08c-4.16,0-7.52,2.78-7.52,6.21v14.76c0,3.44-3.37,6.21-7.52,6.21H48.4c-4.16,0-7.52-2.77-7.52-6.2V100.73c0-3.44,3.39-6.21,7.52-6.21H99.77C103.93,94.52,107.3,97.3,107.3,100.73Z"/><path class="cls-1" d="M141.5,38.17V81.66c0,3.44-3.37,6.21-7.52,6.21H86c-2.06,0-3.78-1.38-3.78-3.11V66.52c0-1.72,1.69-3.11,3.77-3.11h17.88a3.73,3.73,0,0,0,3.44-3.25V38c.34-3.28,3.71-6.06,7.86-6.06H134C138.13,32,141.5,34.74,141.5,38.17Z"/></g></g><circle class="cls-2" cx="87.19" cy="87.19" r="85.19"/></g></g></svg>