<svg xmlns="http://www.w3.org/2000/svg" viewBox="0 0 174.38 174.38"><defs><style>.cls-1{fill:#15f0d8}.cls-2{fill:none;stroke:#15f0d8;stroke-miterlimit:10;stroke-width:4px}</style></defs><title>formico-logo-circle</title><g id="Layer_2" data-name="Layer 2"><g id="Layer_1-2" data-name="Layer 1"><g id="Layer_2-2" data-name="Layer 2"><g id="Layer_1-2-2" data-name="Layer 1-2"><path class="cls-1" d="M77.25 89.94H60.87c-3 0-5.35-2-5.35-4.39V54.84c0-2.42 2.38-4.39 5.35-4.39h31.42c3 0 5.33 2 5.33 4.39v10.7a2.48 2.48 0 0 1-2.67 2.19H82.59a2.47 2.47 0 0 0-2.67 2.19v17.82a2.46 2.46 0 0 1-2.67 2.2zM102.37 99v11.51c0 2.43-2.38 4.39-5.31 4.39H85.27c-2.93 0-5.31 2-5.31 4.39v10.42c0 2.43-2.38 4.39-5.31 4.39H60.78c-2.93 0-5.31-2-5.31-4.38V99c0-2.43 2.39-4.39 5.31-4.39h36.27c2.95.02 5.32 1.99 5.32 4.39z"/><path class="cls-1" d="M126.52 54.84v30.71c0 2.43-2.38 4.39-5.31 4.39H87.32a2.48 2.48 0 0 1-2.67-2.19V74.86a2.46 2.46 0 0 1 2.66-2.19h12.62a2.63 2.63 0 0 0 2.43-2.3V54.74c.24-2.31 2.62-4.28 5.55-4.28h13.29c2.94 0 5.32 1.96 5.32 4.38z"/></g></g><circle class="cls-2" cx="87.19" cy="87.19" r="85.19"/></g></g></svg>