<svg id="Layer_1" data-name="Layer 1" xmlns="http://www.w3.org/2000/svg" viewBox="0 0 984.4 193.09"><defs><style>.cls-1{isolation:isolate}.cls-2{fill:#fff}</style></defs><title>formico-wordmark-2</title><g class="cls-1"><path class="cls-2" d="M59.86 56.8v36.94h69.34v35.68H59.86V199H17.09V19.85H135V56.8z" transform="translate(-17.09 -9.98)"/></g><g class="cls-1"><path class="cls-2" d="M290.14 135.5a68.15 68.15 0 0 1-5.57 28 62.73 62.73 0 0 1-15.18 21.26 69.51 69.51 0 0 1-22.27 13.54 78.3 78.3 0 0 1-54 0 67.68 67.68 0 0 1-22.27-13.54 63.51 63.51 0 0 1-15.06-21.26 68.09 68.09 0 0 1-5.57-28 67.23 67.23 0 0 1 5.57-27.84 62.51 62.51 0 0 1 15.06-21 65.5 65.5 0 0 1 22.24-13.16 82.38 82.38 0 0 1 54 0 67.2 67.2 0 0 1 22.27 13.16 61.76 61.76 0 0 1 15.18 21 67.29 67.29 0 0 1 5.6 27.84zm-40 0a36 36 0 0 0-2-11.89 31.51 31.51 0 0 0-5.82-10.25 29.69 29.69 0 0 0-9.36-7.21 31.31 31.31 0 0 0-25.81 0 28.18 28.18 0 0 0-9.24 7.21 30.89 30.89 0 0 0-5.57 10.25 38.22 38.22 0 0 0 0 23.79 32.51 32.51 0 0 0 5.69 10.5 28 28 0 0 0 9.36 7.47 31.32 31.32 0 0 0 25.81 0 28 28 0 0 0 9.36-7.47 32.5 32.5 0 0 0 5.69-10.5 38.12 38.12 0 0 0 1.91-11.9z" transform="translate(-17.09 -9.98)"/></g><g class="cls-1"><path class="cls-2" d="M397.19 107.16a32.47 32.47 0 0 0-5.44-1q-2.66-.25-5.19-.25a29.65 29.65 0 0 0-14 3 28.63 28.63 0 0 0-9.11 7.32 27.73 27.73 0 0 0-4.93 9.34 31.24 31.24 0 0 0-1.52 8.83V199h-41.5V73.14h40v18.22h.51a41.07 41.07 0 0 1 13.67-15.8 35.19 35.19 0 0 1 20.5-6.12 47.93 47.93 0 0 1 4.93.25 19.23 19.23 0 0 1 3.92.76z" transform="translate(-17.09 -9.98)"/></g><g class="cls-1"><path class="cls-2" d="M583.95 199v-68.82a67.37 67.37 0 0 0-.76-10.25 24.52 24.52 0 0 0-2.78-8.48 16.06 16.06 0 0 0-5.44-5.69 16.69 16.69 0 0 0-9-2.15 18.07 18.07 0 0 0-9.24 2.28 20.53 20.53 0 0 0-6.58 6.07 26.57 26.57 0 0 0-3.92 8.73 41 41 0 0 0-1.23 10.25V199h-41.5v-71.85q0-10.88-4.3-17.21t-13.67-6.33q-9.87 0-15.31 7.85t-5.44 19.23V199H423V73h40.24v17.45h.51a44.1 44.1 0 0 1 5.69-7.85 36.14 36.14 0 0 1 8.22-6.71 46.16 46.16 0 0 1 10.76-4.68 45.58 45.58 0 0 1 13-1.77q13.67 0 23.16 5.57A38.18 38.18 0 0 1 539.41 91a48 48 0 0 1 16.2-15.69q9.87-5.82 24-5.82 12.91 0 21.64 4.68a40.3 40.3 0 0 1 14 12.15A50.53 50.53 0 0 1 623 103a71.75 71.75 0 0 1 2.4 18.09V199z" transform="translate(-17.09 -9.98)"/></g><g class="cls-1"><path class="cls-2" d="M702.88 32.75a21.46 21.46 0 0 1-1.9 9 22.71 22.71 0 0 1-12.65 12 24.63 24.63 0 0 1-9.24 1.77 23.24 23.24 0 0 1-17-6.71 21.72 21.72 0 0 1-6.83-16.07 22.12 22.12 0 0 1 1.82-8.74 20.66 20.66 0 0 1 5.06-7.21 27.32 27.32 0 0 1 7.59-4.93 22.93 22.93 0 0 1 9.36-1.9 24.72 24.72 0 0 1 9.24 1.77 22.71 22.71 0 0 1 12.65 12 21.47 21.47 0 0 1 1.9 9.02zM658.34 199V73h41.5v126z" transform="translate(-17.09 -9.98)"/></g><g class="cls-1"><path class="cls-2" d="M822.83 113.73a25.24 25.24 0 0 0-9.62-7.34 29.51 29.51 0 0 0-12.4-2.78 26.22 26.22 0 0 0-11.89 2.66 28.9 28.9 0 0 0-9.11 7.09 33.32 33.32 0 0 0-5.95 10.25 35.46 35.46 0 0 0-2.15 12.4 37.39 37.39 0 0 0 2 12.4 30.17 30.17 0 0 0 5.95 10.25 28.22 28.22 0 0 0 9.36 7 28.74 28.74 0 0 0 12.27 2.53 34.38 34.38 0 0 0 12.53-2.4 24 24 0 0 0 10-7l23 28.09q-7.85 7.59-20.25 11.89a79.79 79.79 0 0 1-26.32 4.3 83.4 83.4 0 0 1-27.88-4.55 64.73 64.73 0 0 1-22.49-13.29 62.35 62.35 0 0 1-15-21.13 68.86 68.86 0 0 1-5.43-28.1 68.24 68.24 0 0 1 5.47-27.84 62.39 62.39 0 0 1 15-21.13 66.37 66.37 0 0 1 22.49-13.41 80.61 80.61 0 0 1 27.62-4.68 73 73 0 0 1 13.54 1.27 91.36 91.36 0 0 1 12.91 3.42 59.07 59.07 0 0 1 11.39 5.31 48.09 48.09 0 0 1 9 7zm178.66 21.77a68.15 68.15 0 0 1-5.57 28 62.74 62.74 0 0 1-15.18 21.26 69.52 69.52 0 0 1-22.27 13.54 78.3 78.3 0 0 1-54 0 67.67 67.67 0 0 1-22.27-13.54 63.52 63.52 0 0 1-15.06-21.26 68.09 68.09 0 0 1-5.57-28 67.23 67.23 0 0 1 5.57-27.84 62.52 62.52 0 0 1 15.06-21 65.49 65.49 0 0 1 22.24-13.16 82.38 82.38 0 0 1 54 0 67.21 67.21 0 0 1 22.27 13.16 61.76 61.76 0 0 1 15.18 21 67.29 67.29 0 0 1 5.6 27.84zm-40 0a36 36 0 0 0-2-11.89 31.53 31.53 0 0 0-5.82-10.25 29.68 29.68 0 0 0-9.36-7.21 31.31 31.31 0 0 0-25.81 0 28.18 28.18 0 0 0-9.24 7.21 30.87 30.87 0 0 0-5.57 10.25 38.21 38.21 0 0 0 0 23.79 32.5 32.5 0 0 0 5.69 10.5 28 28 0 0 0 9.36 7.47 31.32 31.32 0 0 0 25.81 0 28 28 0 0 0 9.36-7.47 32.5 32.5 0 0 0 5.69-10.5 38.14 38.14 0 0 0 1.91-11.9z" transform="translate(-17.09 -9.98)"/></g></svg>